<svg width="77" height="66" viewBox="0 0 77 66" fill="none" xmlns="http://www.w3.org/2000/svg">
<mask id="path-1-outside-1" maskUnits="userSpaceOnUse" x="0" y="18.072" width="77" height="38" fill="black">
<rect fill="white" y="18.072" width="77" height="38"/>
<path d="M3.11638 47.0988C3.03664 46.9085 2.99714 46.705 3.00016 46.5V26.8067V22.072L6.22742 22.7669V27.3627V46.5C6.23045 46.705 6.19094 46.9085 6.1112 47.0988C6.03147 47.289 5.91309 47.4622 5.76295 47.6081C5.61281 47.7541 5.43391 47.8701 5.23663 47.9492C5.03935 48.0283 4.82764 48.0691 4.61379 48.0691C4.39995 48.0691 4.18823 48.0283 3.99096 47.9492C3.79368 47.8701 3.61477 47.7541 3.46463 47.6081C3.31449 47.4622 3.19612 47.289 3.11638 47.0988Z"/>
<path d="M70.7727 34.5268V29.4174V24.3079V22.5H73.9999V24.4016V29.9129V32.6686V35.4242C72.255 35.6538 71.6879 35.6405 70.7727 34.5268Z"/>
<path d="M40.1137 52.345C39.0488 53.1286 38.3873 53.3036 36.8864 52.345V32.1368V27.0847V26H40.1137V27.0847V32.1368V52.345Z"/>
</mask>
<path d="M3.11638 47.0988C3.03664 46.9085 2.99714 46.705 3.00016 46.5V26.8067V22.072L6.22742 22.7669V27.3627V46.5C6.23045 46.705 6.19094 46.9085 6.1112 47.0988C6.03147 47.289 5.91309 47.4622 5.76295 47.6081C5.61281 47.7541 5.43391 47.8701 5.23663 47.9492C5.03935 48.0283 4.82764 48.0691 4.61379 48.0691C4.39995 48.0691 4.18823 48.0283 3.99096 47.9492C3.79368 47.8701 3.61477 47.7541 3.46463 47.6081C3.31449 47.4622 3.19612 47.289 3.11638 47.0988Z" fill="#259245"/>
<path d="M70.7727 34.5268V29.4174V24.3079V22.5H73.9999V24.4016V29.9129V32.6686V35.4242C72.255 35.6538 71.6879 35.6405 70.7727 34.5268Z" fill="#259245"/>
<path d="M40.1137 52.345C39.0488 53.1286 38.3873 53.3036 36.8864 52.345V32.1368V27.0847V26H40.1137V27.0847V32.1368V52.345Z" fill="#259245"/>
<path d="M3.11638 47.0988C3.03664 46.9085 2.99714 46.705 3.00016 46.5V26.8067V22.072L6.22742 22.7669V27.3627V46.5C6.23045 46.705 6.19094 46.9085 6.1112 47.0988C6.03147 47.289 5.91309 47.4622 5.76295 47.6081C5.61281 47.7541 5.43391 47.8701 5.23663 47.9492C5.03935 48.0283 4.82764 48.0691 4.61379 48.0691C4.39995 48.0691 4.18823 48.0283 3.99096 47.9492C3.79368 47.8701 3.61477 47.7541 3.46463 47.6081C3.31449 47.4622 3.19612 47.289 3.11638 47.0988Z" stroke="#27231C" stroke-width="6" mask="url(#path-1-outside-1)"/>
<path d="M70.7727 34.5268V29.4174V24.3079V22.5H73.9999V24.4016V29.9129V32.6686V35.4242C72.255 35.6538 71.6879 35.6405 70.7727 34.5268Z" stroke="#27231C" stroke-width="6" mask="url(#path-1-outside-1)"/>
<path d="M40.1137 52.345C39.0488 53.1286 38.3873 53.3036 36.8864 52.345V32.1368V27.0847V26H40.1137V27.0847V32.1368V52.345Z" stroke="#27231C" stroke-width="6" mask="url(#path-1-outside-1)"/>
<mask id="path-2-outside-2" maskUnits="userSpaceOnUse" x="0" y="0" width="77" height="27" fill="black">
<rect fill="white" width="77" height="27"/>
<path d="M4.00861 5.71031C9.57391 3.34859 14.6022 3 19.9432 3C27.0103 3 33.3974 6.26677 38.5 8.90848C43.6026 6.26677 49.9897 3 57.0568 3C62.3978 3 67.4261 3.34859 72.9914 5.71031C73.292 5.84105 73.5491 6.06613 73.729 6.35621C73.9089 6.64628 74.0033 6.98789 73.9999 7.3365V19.6955C73.2736 21.141 72.4861 21.0206 70.7727 20.0411V8.58325C66.1281 6.80745 61.9096 6.4692 57.0568 6.4692C51.0446 6.4692 45.131 9.30872 40.1136 11.8898V23.2189C38.909 24.1836 38.2111 24.3344 36.8864 23.2189V11.8898C31.869 9.30872 25.9554 6.4692 19.9432 6.4692C15.0904 6.4692 10.8719 6.80745 6.22735 8.58325V18.8892C4.98454 19.3189 4.22454 19.1111 3.00009 17.9542V7.3365C2.99672 6.98789 3.09114 6.64628 3.27104 6.35621C3.45093 6.06613 3.70796 5.84105 4.00861 5.71031Z"/>
</mask>
<path d="M4.00861 5.71031C9.57391 3.34859 14.6022 3 19.9432 3C27.0103 3 33.3974 6.26677 38.5 8.90848C43.6026 6.26677 49.9897 3 57.0568 3C62.3978 3 67.4261 3.34859 72.9914 5.71031C73.292 5.84105 73.5491 6.06613 73.729 6.35621C73.9089 6.64628 74.0033 6.98789 73.9999 7.3365V19.6955C73.2736 21.141 72.4861 21.0206 70.7727 20.0411V8.58325C66.1281 6.80745 61.9096 6.4692 57.0568 6.4692C51.0446 6.4692 45.131 9.30872 40.1136 11.8898V23.2189C38.909 24.1836 38.2111 24.3344 36.8864 23.2189V11.8898C31.869 9.30872 25.9554 6.4692 19.9432 6.4692C15.0904 6.4692 10.8719 6.80745 6.22735 8.58325V18.8892C4.98454 19.3189 4.22454 19.1111 3.00009 17.9542V7.3365C2.99672 6.98789 3.09114 6.64628 3.27104 6.35621C3.45093 6.06613 3.70796 5.84105 4.00861 5.71031Z" fill="#FFE000"/>
<path d="M4.00861 5.71031C9.57391 3.34859 14.6022 3 19.9432 3C27.0103 3 33.3974 6.26677 38.5 8.90848C43.6026 6.26677 49.9897 3 57.0568 3C62.3978 3 67.4261 3.34859 72.9914 5.71031C73.292 5.84105 73.5491 6.06613 73.729 6.35621C73.9089 6.64628 74.0033 6.98789 73.9999 7.3365V19.6955C73.2736 21.141 72.4861 21.0206 70.7727 20.0411V8.58325C66.1281 6.80745 61.9096 6.4692 57.0568 6.4692C51.0446 6.4692 45.131 9.30872 40.1136 11.8898V23.2189C38.909 24.1836 38.2111 24.3344 36.8864 23.2189V11.8898C31.869 9.30872 25.9554 6.4692 19.9432 6.4692C15.0904 6.4692 10.8719 6.80745 6.22735 8.58325V18.8892C4.98454 19.3189 4.22454 19.1111 3.00009 17.9542V7.3365C2.99672 6.98789 3.09114 6.64628 3.27104 6.35621C3.45093 6.06613 3.70796 5.84105 4.00861 5.71031Z" stroke="#27231C" stroke-width="6" mask="url(#path-2-outside-2)"/>
<mask id="path-3-outside-3" maskUnits="userSpaceOnUse" x="0" y="33" width="77" height="33" fill="black">
<rect fill="white" y="33" width="77" height="33"/>
<path d="M19.944 53.7551C27.3005 53.7551 32.4435 55.9644 36.8869 58.4621C38.1903 59.1663 38.8974 59.114 40.1141 58.4621C44.5575 55.9644 49.7005 53.7551 57.0571 53.7551C61.7723 53.7551 65.9529 54.168 70.7728 55.6747V39C72.1542 39.9309 72.8517 40.1 74 39.9762V57.9625C73.9981 58.2299 73.9352 58.493 73.8164 58.73C73.6976 58.967 73.5264 59.171 73.3169 59.3253C73.1074 59.4795 72.8657 59.5794 72.6118 59.6168C72.3579 59.6542 72.0992 59.6279 71.8569 59.5402C66.4213 57.5363 62.2939 57.121 57.0571 57.121C49.0586 57.121 44.259 59.8015 39.3073 62.7746C39.062 62.9222 38.7838 63 38.5005 63C38.2173 63 37.939 62.9222 37.6937 62.7746C32.742 59.8015 27.9425 57.121 19.944 57.121C14.7072 57.121 10.5797 57.5363 5.14411 59.5402C4.9438 59.6127 4.73175 59.6434 4.52008 59.6304C4.3084 59.6175 4.10125 59.5611 3.91044 59.4647C3.71963 59.3682 3.5489 59.2335 3.40801 59.0683C3.26711 58.903 3.15881 58.7104 3.08928 58.5015C3.01975 58.2926 2.99035 58.0714 3.00277 57.8507C3.01519 57.6299 3.06918 57.4139 3.16166 57.2148C3.25414 57.0158 3.38329 56.8378 3.54175 56.6908C3.70021 56.5439 3.88487 56.4309 4.08518 56.3584C9.87915 54.2224 14.5311 53.7551 19.944 53.7551Z"/>
</mask>
<path d="M19.944 53.7551C27.3005 53.7551 32.4435 55.9644 36.8869 58.4621C38.1903 59.1663 38.8974 59.114 40.1141 58.4621C44.5575 55.9644 49.7005 53.7551 57.0571 53.7551C61.7723 53.7551 65.9529 54.168 70.7728 55.6747V39C72.1542 39.9309 72.8517 40.1 74 39.9762V57.9625C73.9981 58.2299 73.9352 58.493 73.8164 58.73C73.6976 58.967 73.5264 59.171 73.3169 59.3253C73.1074 59.4795 72.8657 59.5794 72.6118 59.6168C72.3579 59.6542 72.0992 59.6279 71.8569 59.5402C66.4213 57.5363 62.2939 57.121 57.0571 57.121C49.0586 57.121 44.259 59.8015 39.3073 62.7746C39.062 62.9222 38.7838 63 38.5005 63C38.2173 63 37.939 62.9222 37.6937 62.7746C32.742 59.8015 27.9425 57.121 19.944 57.121C14.7072 57.121 10.5797 57.5363 5.14411 59.5402C4.9438 59.6127 4.73175 59.6434 4.52008 59.6304C4.3084 59.6175 4.10125 59.5611 3.91044 59.4647C3.71963 59.3682 3.5489 59.2335 3.40801 59.0683C3.26711 58.903 3.15881 58.7104 3.08928 58.5015C3.01975 58.2926 2.99035 58.0714 3.00277 57.8507C3.01519 57.6299 3.06918 57.4139 3.16166 57.2148C3.25414 57.0158 3.38329 56.8378 3.54175 56.6908C3.70021 56.5439 3.88487 56.4309 4.08518 56.3584C9.87915 54.2224 14.5311 53.7551 19.944 53.7551Z" fill="#ED1F34"/>
<path d="M19.944 53.7551C27.3005 53.7551 32.4435 55.9644 36.8869 58.4621C38.1903 59.1663 38.8974 59.114 40.1141 58.4621C44.5575 55.9644 49.7005 53.7551 57.0571 53.7551C61.7723 53.7551 65.9529 54.168 70.7728 55.6747V39C72.1542 39.9309 72.8517 40.1 74 39.9762V57.9625C73.9981 58.2299 73.9352 58.493 73.8164 58.73C73.6976 58.967 73.5264 59.171 73.3169 59.3253C73.1074 59.4795 72.8657 59.5794 72.6118 59.6168C72.3579 59.6542 72.0992 59.6279 71.8569 59.5402C66.4213 57.5363 62.2939 57.121 57.0571 57.121C49.0586 57.121 44.259 59.8015 39.3073 62.7746C39.062 62.9222 38.7838 63 38.5005 63C38.2173 63 37.939 62.9222 37.6937 62.7746C32.742 59.8015 27.9425 57.121 19.944 57.121C14.7072 57.121 10.5797 57.5363 5.14411 59.5402C4.9438 59.6127 4.73175 59.6434 4.52008 59.6304C4.3084 59.6175 4.10125 59.5611 3.91044 59.4647C3.71963 59.3682 3.5489 59.2335 3.40801 59.0683C3.26711 58.903 3.15881 58.7104 3.08928 58.5015C3.01975 58.2926 2.99035 58.0714 3.00277 57.8507C3.01519 57.6299 3.06918 57.4139 3.16166 57.2148C3.25414 57.0158 3.38329 56.8378 3.54175 56.6908C3.70021 56.5439 3.88487 56.4309 4.08518 56.3584C9.87915 54.2224 14.5311 53.7551 19.944 53.7551Z" stroke="#27231C" stroke-width="6" mask="url(#path-3-outside-3)"/>
</svg>
