<svg width="55" height="55" viewBox="0 0 55 55" fill="none" xmlns="http://www.w3.org/2000/svg">
<path fill-rule="evenodd" clip-rule="evenodd" d="M55 27.5C55 42.6878 42.6878 55 27.5 55C12.3122 55 0 42.6878 0 27.5C0 12.3122 12.3122 0 27.5 0C42.6878 0 55 12.3122 55 27.5ZM28.4855 20.3017C25.8107 21.4142 20.4649 23.7169 12.4481 27.2097C11.1463 27.7274 10.4643 28.2338 10.4023 28.729C10.2973 29.5659 11.3454 29.8955 12.7725 30.3442C12.9667 30.4053 13.1678 30.4685 13.374 30.5356C14.7781 30.992 16.6669 31.5259 17.6488 31.5472C18.5395 31.5664 19.5335 31.1992 20.6311 30.4456C28.1214 25.3894 31.988 22.8337 32.2307 22.7786C32.402 22.7398 32.6393 22.6909 32.8001 22.8338C32.9609 22.9767 32.9451 23.2474 32.928 23.32C32.8242 23.7626 28.7103 27.5873 26.5813 29.5666C25.9176 30.1836 25.4468 30.6213 25.3506 30.7212C25.135 30.9452 24.9153 31.157 24.7041 31.3605C23.3997 32.618 22.4215 33.561 24.7583 35.101C25.8813 35.841 26.7799 36.4529 27.6763 37.0634C28.6554 37.7302 29.6319 38.3952 30.8954 39.2234C31.2173 39.4344 31.5247 39.6536 31.8241 39.867C32.9635 40.6793 33.9871 41.4091 35.2518 41.2927C35.9866 41.2251 36.7456 40.5341 37.1311 38.4733C38.0422 33.603 39.8329 23.0506 40.2468 18.7022C40.283 18.3213 40.2374 17.8337 40.2008 17.6196C40.1641 17.4056 40.0876 17.1007 39.8094 16.8749C39.4799 16.6076 38.9712 16.5512 38.7438 16.5552C37.7094 16.5734 36.1225 17.1252 28.4855 20.3017Z" fill="#27231C"/>
</svg>
